<?xml version="1.0" standalone="no"?>
<!DOCTYPE svg PUBLIC "-//W3C//DTD SVG 20010904//EN"
 "http://www.w3.org/TR/2001/REC-SVG-20010904/DTD/svg10.dtd">
<svg version="1.0" xmlns="http://www.w3.org/2000/svg"
 width="512.000000pt" height="512.000000pt" viewBox="0 0 512.000000 512.000000"
 preserveAspectRatio="xMidYMid meet">

<g transform="translate(0.000000,512.000000) scale(0.100000,-0.100000)"
fill="#000000" stroke="none">
<path d="M2505 4903 c-208 -105 -138 -96 -810 -103 l-590 -5 -67 -32 c-93 -44
-151 -100 -196 -191 l-37 -76 -3 -670 c-2 -480 0 -692 8 -746 24 -150 87 -287
183 -397 l47 -54 0 -113 0 -113 -148 -5 c-120 -5 -161 -10 -224 -31 -118 -38
-203 -91 -294 -181 -89 -90 -142 -174 -183 -294 l-26 -77 -3 -720 c-2 -552 0
-731 9 -765 17 -59 97 -141 155 -158 32 -9 504 -12 2060 -12 l2019 0 50 24
c54 25 104 74 123 122 6 16 95 330 198 699 159 572 185 677 181 717 -10 81
-56 145 -132 179 -38 18 -92 19 -1070 19 -638 0 -1043 -4 -1064 -10 -48 -14
-97 -49 -127 -92 -17 -24 -73 -194 -174 -530 l-149 -493 0 298 -1 298 -25 24
c-32 33 -78 33 -110 0 l-25 -24 0 -376 0 -375 -118 0 -118 0 -49 46 c-26 26
-78 60 -114 78 l-66 31 -388 5 -389 5 -19 24 c-18 22 -19 42 -19 293 l0 269
-25 24 c-32 33 -78 33 -110 0 l-25 -24 0 -272 c0 -184 4 -285 12 -313 16 -55
99 -138 154 -154 27 -8 117 -12 258 -12 l216 0 0 -160 0 -160 -455 0 -456 0
-24 25 -25 24 0 679 c0 438 4 699 11 738 38 212 231 405 443 443 90 17 276 15
276 -3 0 -7 16 -45 35 -83 147 -294 563 -295 710 -1 19 39 35 77 35 84 0 19
202 19 293 -1 97 -20 196 -76 278 -157 55 -54 76 -68 100 -68 41 0 79 39 79
82 0 27 -12 44 -77 108 -87 86 -177 140 -291 178 -64 20 -103 26 -224 30 -131
4 -148 6 -148 21 0 12 22 26 68 45 191 79 356 248 434 446 14 36 29 80 33 98
l7 32 67 0 c96 0 152 22 204 80 24 26 49 66 55 88 16 53 16 411 0 464 -6 22
-31 62 -55 88 -51 57 -108 80 -195 80 l-58 0 0 85 c0 65 3 85 14 85 7 0 45 16
83 35 86 43 144 103 186 193 l32 67 3 302 3 303 -25 25 c-36 36 -67 31 -191
-32z m44 -571 c-14 -51 -75 -123 -126 -148 -35 -18 -77 -19 -613 -24 l-575 -5
-66 -31 c-41 -20 -93 -57 -138 -99 l-71 -67 0 237 c0 267 5 295 61 359 75 85
40 80 694 86 639 6 619 5 768 73 l72 33 3 -185 c2 -120 -1 -201 -9 -229z
m-309 -412 l0 -80 -456 0 c-321 0 -468 -3 -496 -12 -48 -14 -121 -76 -138
-118 l-12 -30 -89 0 c-86 0 -89 1 -89 23 0 32 220 249 280 276 43 20 65 21
523 21 l477 0 0 -80z m-795 -480 l0 -240 -58 0 c-48 0 -62 4 -82 25 -25 24
-25 26 -25 215 0 189 0 191 25 215 20 21 34 25 82 25 l58 0 0 -240z m1090 215
c25 -24 25 -26 25 -215 0 -189 0 -191 -25 -215 l-24 -25 -431 0 -431 0 -24 25
c-25 24 -25 26 -25 215 0 189 0 191 25 215 l24 25 431 0 431 0 24 -25z m-1415
-215 l0 -80 -80 0 -80 0 0 80 0 80 80 0 80 0 0 -80z m30 -270 c14 -34 78 -95
118 -113 19 -9 160 -13 489 -17 l461 -5 -19 -54 c-62 -178 -217 -327 -402
-387 -70 -23 -99 -27 -197 -27 -97 0 -127 4 -195 26 -223 73 -388 258 -431
485 -24 128 -28 122 75 122 l89 0 12 -30z m168 -717 c85 -32 196 -52 290 -53
l72 0 0 -56 c0 -87 -18 -133 -75 -189 -101 -102 -229 -102 -330 0 -64 63 -75
100 -75 245 l0 112 26 -17 c14 -9 56 -28 92 -42z m3462 -713 c11 -11 20 -26
20 -34 0 -18 -345 -1266 -366 -1322 -9 -25 -24 -45 -40 -53 -18 -8 -295 -11
-1033 -11 -1005 0 -1008 0 -1035 21 -20 16 -26 29 -26 57 1 20 88 327 195 682
152 505 198 648 215 662 21 17 81 18 1036 18 1001 0 1014 0 1034 -20z m-3186
-1112 c55 -16 138 -99 154 -154 7 -23 12 -67 12 -98 l0 -56 -160 0 -160 0 0
160 0 160 56 0 c31 0 75 -5 98 -12z m551 -228 l0 -80 -112 0 -113 0 0 80 0 80
113 0 112 0 0 -80z"/>
<path d="M3420 1344 c-142 -52 -229 -183 -218 -327 26 -318 443 -407 597 -127
33 60 36 71 36 150 0 78 -3 91 -34 148 -58 106 -144 161 -265 168 -50 3 -84
-1 -116 -12z m163 -158 c103 -43 128 -177 48 -257 -65 -65 -157 -65 -222 0
-124 123 13 325 174 257z"/>
<path d="M3040 4307 c-49 -16 -133 -102 -148 -153 -17 -59 -17 -1369 0 -1428
16 -55 99 -138 154 -154 28 -8 129 -12 312 -12 l272 0 117 -232 c127 -252 138
-264 201 -242 23 8 45 45 145 242 l117 232 273 0 c321 0 342 4 410 80 24 26
49 66 55 88 17 56 17 1368 0 1424 -6 22 -31 62 -55 88 -76 85 -21 80 -977 79
-583 -1 -852 -4 -876 -12z m1735 -172 l25 -24 0 -671 0 -671 -25 -24 -24 -25
-308 0 c-248 0 -312 -3 -328 -14 -11 -8 -58 -91 -105 -185 -46 -94 -87 -171
-90 -171 -3 0 -44 77 -90 171 -47 94 -94 177 -105 185 -16 11 -80 14 -328 14
l-308 0 -24 25 -25 24 0 671 0 671 25 24 24 25 831 0 831 0 24 -25z"/>
<path d="M3555 3827 c-367 -186 -372 -189 -349 -254 8 -24 57 -52 349 -200
187 -95 350 -172 363 -172 12 -1 144 60 292 134 l270 135 0 -110 c0 -104 1
-112 25 -135 15 -16 36 -25 55 -25 19 0 40 9 55 25 25 24 25 26 25 210 0 111
-4 194 -10 206 -13 24 -680 359 -712 358 -13 0 -176 -77 -363 -172z m590 -109
c124 -62 225 -115 225 -118 0 -3 -101 -56 -225 -118 l-225 -112 -225 112
c-124 62 -225 115 -225 118 0 4 434 226 447 229 2 1 104 -50 228 -111z"/>
<path d="M3545 3255 c-22 -21 -25 -33 -25 -96 0 -102 16 -145 75 -204 69 -69
94 -75 327 -75 234 0 266 8 331 80 52 57 67 103 67 199 0 63 -3 75 -25 96 -15
16 -36 25 -55 25 -19 0 -40 -9 -55 -25 -22 -21 -25 -33 -25 -95 0 -62 -3 -74
-25 -95 -24 -25 -26 -25 -215 -25 -189 0 -191 0 -215 25 -22 21 -25 33 -25 95
0 62 -3 74 -25 95 -15 16 -36 25 -55 25 -19 0 -40 -9 -55 -25z"/>
</g>
</svg>
